<svg width="134" height="49" viewBox="0 0 134 49" fill="none" xmlns="http://www.w3.org/2000/svg">
<path d="M0 29.9625H5.03001C5.03001 30.8333 5.31646 31.5436 5.90081 32.1051C6.48516 32.6665 7.20701 32.953 8.07781 32.953C8.90278 32.953 9.60171 32.6665 10.1746 32.0822C10.736 31.4978 11.0225 30.776 11.0225 29.9052C11.0225 29.0802 10.8048 28.45 10.3694 28.0146C9.93399 27.5792 9.12048 27.1438 7.90594 26.6855L6.8289 26.2845C4.45712 25.4137 2.85301 24.4741 2.02805 23.4544C0.870799 22.0221 0.286447 20.3493 0.286447 18.4244C0.286447 16.2015 1.04267 14.3224 2.54365 12.7756C4.05609 11.2288 5.8779 10.4611 8.03198 10.4611C10.1402 10.4611 11.9391 11.2059 13.4286 12.6954C14.9182 14.1849 15.6858 16.0182 15.7202 18.2067H10.7475C10.6329 16.4307 9.75066 15.5484 8.08927 15.5484C7.33305 15.5484 6.69141 15.8234 6.16434 16.3734C5.63728 16.9234 5.37375 17.5879 5.37375 18.3785C5.37375 19.8451 6.33621 20.8878 8.26114 21.4836L10.0142 22.045C11.8933 22.6523 13.2911 23.5002 14.1963 24.5887C15.514 26.1699 16.1785 27.9573 16.1785 29.9625C16.1785 32.1509 15.3879 34.0529 13.8068 35.6685C12.2256 37.284 10.3579 38.0976 8.21531 38.0976C6.78307 38.0976 5.40812 37.7309 4.09047 36.9976C2.77281 36.2643 1.76452 35.3018 1.06558 34.1102C0.355195 32.93 0 31.5436 0 29.9625Z" fill="black"/>
<path d="M33.6976 10.7934V40.0224C33.6976 42.2453 33.2966 43.9639 32.506 45.167C30.9248 47.619 28.6218 48.845 25.6084 48.845C23.3512 48.845 21.4377 48.0544 19.868 46.4732C18.2982 44.892 17.5191 42.9442 17.5191 40.6526H22.8929C23.0762 42.4973 23.9814 43.4254 25.6084 43.4254C26.9604 43.4254 27.8083 42.8181 28.152 41.6151C28.2666 41.2713 28.3239 40.7443 28.3239 40.0339V34.9466C27.1208 37.009 25.4021 38.0402 23.1793 38.0402C20.9908 38.0402 19.3295 37.0663 18.2066 35.0955C17.7597 34.3049 17.5306 33.0446 17.5306 31.303V16.3275C17.5306 14.6318 18.0691 13.2224 19.1461 12.111C20.2232 10.9996 21.5867 10.4382 23.248 10.4382C25.3219 10.4382 27.0177 11.4006 28.3354 13.3256V10.7819H33.6976V10.7934ZM28.3239 29.2749V19.043C28.3239 18.0233 28.152 17.29 27.8197 16.8431C27.2583 16.0869 26.525 15.7088 25.6198 15.7088C24.898 15.7088 24.2678 15.9609 23.7293 16.4765C23.1793 16.9806 22.9043 17.84 22.9043 19.043V29.2749C22.9043 30.2603 23.0189 30.9363 23.248 31.3144C23.7751 32.2196 24.5886 32.6665 25.6771 32.6665C27.4416 32.6665 28.3239 31.5436 28.3239 29.2749Z" fill="black"/>
<path d="M44.6056 14.9754V30.0426C44.6056 31.28 44.8348 32.0133 45.2816 32.2425C45.5795 32.3914 46.0493 32.4716 46.691 32.4716H47.9284V37.6048H46.2326C43.4484 37.6048 41.4203 36.6309 40.137 34.6716C39.5298 33.8122 39.2318 32.5977 39.2318 31.0623V14.9754H36.5736V10.7475H39.2433V2.56653H44.6056V10.7475H47.9399V14.9754H44.6056Z" fill="#A614B9"/>
<path d="M55.2156 10.7475V13.6234C56.9801 11.5953 59.3176 10.4954 62.2164 10.3464V15.9379C61.5748 15.7889 61.0362 15.7087 60.5779 15.7087C58.9165 15.7087 57.5301 16.3618 56.3958 17.6795C55.6052 18.619 55.2156 20.0169 55.2156 21.8616V37.6048H49.8533V10.7475H55.2156Z" fill="#A614B9"/>
<path d="M74.0065 37.6048V34.9007C72.8378 36.9287 71.1421 37.9485 68.9307 37.9485C67.7276 37.9485 66.6162 37.5933 65.5965 36.8714C64.5767 36.1611 63.8892 35.233 63.5111 34.1101C63.3278 33.5143 63.2247 32.6206 63.2247 31.4519V28.4041C63.2247 25.9635 64.1986 24.0157 66.1579 22.5949C67.2464 21.8043 68.8505 21.4147 70.9587 21.4147H74.0065V19.1003C74.0065 18.0805 73.8347 17.3472 73.5024 16.9003C72.941 16.1441 72.2191 15.766 71.3598 15.766C69.7442 15.766 68.839 16.6368 68.6557 18.3669H63.2361C63.3163 16.1097 64.1184 14.2192 65.6652 12.6953C67.212 11.1714 69.1026 10.4152 71.3598 10.4152C73.5368 10.4152 75.4273 11.1943 77.0085 12.7526C78.5897 14.3108 79.3803 16.1899 79.3803 18.3669V37.6162H74.0065V37.6048ZM74.0065 25.8146H71.9785C69.7557 25.8146 68.6443 26.6625 68.6443 28.3582V29.653C68.6443 31.6123 69.5609 32.5862 71.4056 32.5862C72.2649 32.5862 72.9524 32.2654 73.4337 31.6237C73.8118 31.131 73.9951 30.0655 73.9951 28.4041V25.8146H74.0065Z" fill="#A614B9"/>
<path d="M97.69 0V37.6965H92.3163V34.9236C91.0673 37.009 89.3716 38.0402 87.229 38.0402C85.4186 38.0402 83.9291 37.3069 82.7604 35.8403C81.9698 34.8205 81.5688 33.1477 81.5688 30.8103V16.2817C81.5688 14.6203 82.1188 13.2339 83.2073 12.1224C84.2958 11.011 85.6592 10.4496 87.2748 10.4496C89.4632 10.4496 91.1361 11.4121 92.3048 13.337V0H97.69ZM92.3163 29.0572V19.3868C92.3163 18.1378 92.11 17.29 91.6975 16.8431C91.2048 16.1671 90.5059 15.8233 89.6007 15.8233C88.5466 15.8233 87.756 16.2931 87.229 17.2327C87.0456 17.5764 86.9425 18.2868 86.9425 19.3753V29.0458C86.9425 30.3634 87.1717 31.2686 87.6185 31.7613C88.1456 32.3685 88.8216 32.6664 89.658 32.6664C90.334 32.6664 90.9528 32.4144 91.4913 31.8988C92.0413 31.3946 92.3163 30.4436 92.3163 29.0572Z" fill="black"/>
<path d="M105.321 26.1698V28.9426C105.321 30.2946 105.562 31.2571 106.054 31.83C106.547 32.3914 107.189 32.6779 107.979 32.6779C109.56 32.6779 110.466 31.7498 110.695 29.9051H116.068C116.068 32.1279 115.289 34.0414 113.72 35.6455C112.15 37.2496 110.259 38.0516 108.036 38.0516C106.604 38.0516 105.241 37.6621 103.935 36.8944C102.64 36.1267 101.643 35.0955 100.967 33.8122C100.291 32.5289 99.9472 30.9134 99.9472 28.9541V18.7795C99.9472 16.4764 100.738 14.5171 102.319 12.9015C103.9 11.286 105.802 10.4725 108.025 10.4725C110.328 10.4725 112.241 11.2631 113.765 12.8443C115.289 14.4255 116.057 16.4077 116.057 18.7795V26.1813H105.321V26.1698ZM110.683 21.8158V19.1003C110.683 16.9118 109.801 15.8233 108.025 15.8233C107.005 15.8233 106.215 16.2702 105.653 17.1753C105.424 17.5535 105.309 18.1951 105.309 19.1003V21.8158H110.683Z" fill="black"/>
<path d="M134 37.6094H129.168L127.919 34.6746L130.416 29.1618L134 37.6094ZM120.832 37.6094H116L122.89 23.7066L116.462 10.6094H121.295L127.734 23.7181L120.832 37.6094ZM130.405 18.2628L128.069 12.8536L129.11 10.6094H133.942L130.405 18.2628Z" fill="black"/>
</svg>
